<svg xmlns="http://www.w3.org/2000/svg" viewBox="0 0 1024 1024" role="img" aria-label="Endara app icon">
  
  <defs>
    <clipPath id="squircle">
      <path d="M 512 0 C 81.92 0 0 81.92 0 512 C 0 942.08 81.92 1024 512 1024 C 942.08 1024 1024 942.08 1024 512 C 1024 81.92 942.08 0 512 0 Z"></path>
    </clipPath>
    <linearGradient id="bg" x1="0" y1="0" x2="0" y2="1">
      <stop offset="0" stop-color="#FFFCF6"></stop>
      <stop offset="1" stop-color="#F0E8D6"></stop>
    </linearGradient>
    
    <linearGradient id="sheen" x1="0" y1="0" x2="0" y2="1">
      <stop offset="0" stop-color="#FFFFFF" stop-opacity="0.45"></stop>
      <stop offset="0.4" stop-color="#FFFFFF" stop-opacity="0"></stop>
    </linearGradient>
  </defs>

  <g clip-path="url(#squircle)">
    
    <rect width="1024" height="1024" fill="url(#bg)"></rect>

    
    <rect width="1024" height="420" fill="url(#sheen)"></rect>

    
    
    
    <g fill="#9A6E3D" transform="translate(40.96 40.96) scale(9.4208)">
      <rect x="14" y="20" width="72" height="14" rx="3"></rect>
      <rect x="14" y="43" width="50" height="14" rx="3"></rect>
      <rect x="14" y="66" width="72" height="14" rx="3"></rect>
    </g>

    
    <path d="M 512 0 C 81.92 0 0 81.92 0 512 C 0 942.08 81.92 1024 512 1024 C 942.08 1024 1024 942.08 1024 512 C 1024 81.92 942.08 0 512 0 Z" fill="none" stroke="rgba(154,110,61,0.10)" stroke-width="2"></path>
  </g>
</svg>